<svg width="1200" height="630" viewBox="0 0 1200 630" fill="none" xmlns="http://www.w3.org/2000/svg">
  <!-- Background -->
  <rect width="1200" height="630" fill="#0D0D0F"/>

  <!-- mk monogram mark (centered, above text) -->
  <g transform="translate(564, 140)">
    <svg width="72" height="72" viewBox="0 0 120 120" fill="none">
      <rect x="12" y="20" width="10" height="80" rx="3" fill="#EAEAEC"/>
      <rect x="37" y="20" width="10" height="80" rx="3" fill="#EAEAEC"/>
      <rect x="18" y="20" width="10" height="44" rx="3" fill="#EAEAEC" transform="rotate(16 23 20)"/>
      <rect x="32" y="20" width="10" height="44" rx="3" fill="#EAEAEC" transform="rotate(-16 37 20)"/>
      <rect x="55" y="20" width="10" height="80" rx="3" fill="#3BDFCF"/>
      <polygon points="62,58 65,52 98,22 102,28" fill="#3BDFCF"/>
      <polygon points="62,62 65,68 100,100 96,105" fill="#3BDFCF"/>
    </svg>
  </g>

  <!-- "mkships" text -->
  <text x="600" y="280" text-anchor="middle" font-family="-apple-system, BlinkMacSystemFont, 'SF Pro Display', 'Segoe UI', Roboto, Helvetica, Arial, sans-serif" font-size="48" font-weight="700" fill="#EAEAEC" letter-spacing="-1.5">mkships</text>

  <!-- Tagline -->
  <text x="600" y="320" text-anchor="middle" font-family="-apple-system, BlinkMacSystemFont, 'SF Pro Display', 'Segoe UI', Roboto, Helvetica, Arial, sans-serif" font-size="20" fill="#8A8A96">Built. Shipped. Live.</text>

  <!-- Product icon placeholder row -->
  <g transform="translate(462, 370)">
    <rect x="0" y="0" width="40" height="40" rx="9" fill="#1E1E24" stroke="#2A2A32" stroke-width="1"/>
    <rect x="56" y="0" width="40" height="40" rx="9" fill="#1E1E24" stroke="#2A2A32" stroke-width="1"/>
    <rect x="112" y="0" width="40" height="40" rx="9" fill="#1E1E24" stroke="#2A2A32" stroke-width="1"/>
    <rect x="168" y="0" width="40" height="40" rx="9" fill="#1E1E24" stroke="#2A2A32" stroke-width="1"/>
    <rect x="224" y="0" width="40" height="40" rx="9" fill="#1E1E24" stroke="#2A2A32" stroke-width="1"/>
  </g>
</svg>
